# xmcd CD database file
#
# Track frame offsets:
#	150
#	18761
#	38963
#	59693
#	77166
#	101740
#	125373
#	146634
#	168198
#	189903
#
# Disc length: 2739 seconds
#
# Revision: 2
# Processed by: cddbd v1.5.1PL2 Copyright (c) Steve Scherf et al.
# Submitted via: CDex 1.51
#
DISCID=800ab10a
DTITLE=Torun Eriksen - Prayers and Observations
DYEAR=2006
DGENRE=Jazz
TTITLE0=Joy
TTITLE1=My Boys
TTITLE2=Way To Go
TTITLE3=Song Of Sadness
TTITLE4=Featuring Youth
TTITLE5=The Sky From Where I Live
TTITLE6=This Is Real
TTITLE7=Stories
TTITLE8=Tired
TTITLE9=Saviour
EXTD=YEAR: 2006
EXTT0=
EXTT1=
EXTT2=
EXTT3=
EXTT4=
EXTT5=
EXTT6=
EXTT7=
EXTT8=
EXTT9=
PLAYORDER=
